<?xml version="1.0" encoding="UTF-8"?>
<!DOCTYPE svg PUBLIC "-//W3C//DTD SVG 1.1//EN" "http://www.w3.org/Graphics/SVG/1.1/DTD/svg11.dtd">
<!-- Creator: CorelDRAW 2018 (64-Bit) -->
<svg xmlns="http://www.w3.org/2000/svg" xml:space="preserve" width="8000px" height="4100px" version="1.1" style="shape-rendering:geometricPrecision; text-rendering:geometricPrecision; image-rendering:optimizeQuality; fill-rule:evenodd; clip-rule:evenodd"
viewBox="0 0 8000 4100"
 xmlns:xlink="http://www.w3.org/1999/xlink">
 <defs>
  <style type="text/css">
   <![CDATA[
    .fil0 {fill:#651c02}
    .fil1 {fill:#F2B749}
    .fil2 {fill:#651c02;fill-rule:nonzero}
    .fil3 {fill:#F2B749;fill-rule:nonzero}
   ]]>
  </style>
 </defs>
 <g id="Layer_x0020_1">
  <metadata id="CorelCorpID_0Corel-Layer"/>
  <rect class="fil0" x="4000" width="4000" height="4100"/>
  <rect class="fil1" width="4000" height="4100"/>
  <g id="_2771281294064">
   <path class="fil0" d="M2639 2599c-19,17 -39,34 -60,49 -99,-61 -178,-127 -236,-197l126 269c-112,63 -234,102 -358,116l0 -703 -74 10 0 698c-25,1 -50,1 -75,0l0 -698 -74 -10 0 703c-124,-15 -246,-53 -358,-116l126 -269c-58,70 -137,135 -236,197 -20,-15 -40,-32 -60,-49 144,-80 263,-181 356,-302 -7,-45 -14,-80 -19,-105 -43,48 -89,86 -138,115 -58,3 -119,7 -184,14 0,0 -24,-28 -71,-83 11,-74 29,-128 54,-163 2,-48 9,-87 22,-118 -59,-252 25,-412 179,-465 15,-60 46,-110 95,-151 25,55 54,93 88,113l16 -4c-1,83 41,142 122,175 -52,-48 -87,-116 -89,-183l39 -10c6,33 29,68 69,106 13,-12 27,-22 41,-32 -50,-30 -78,-65 -85,-104 0,0 1,-1 4,-3 -22,-36 -34,-77 -35,-123 0,0 -7,-4 -20,-12 0,0 0,-34 -1,-101 0,0 7,-4 20,-12 5,-81 57,-146 125,-166l0 -21c0,-15 13,-28 28,-28l48 0c15,0 28,13 28,28l0 21c67,20 120,85 125,166 13,8 20,12 20,12 0,67 -1,101 -1,101 -14,8 -20,12 -20,12 -1,45 -13,86 -35,123 3,2 4,3 4,3 -7,39 -35,74 -85,104 15,9 29,20 41,32 40,-38 63,-74 69,-106l38 9c-2,67 -37,135 -89,183 81,-33 123,-93 122,-175l17 4c34,-21 63,-58 88,-113 49,41 81,92 95,151 154,53 238,213 179,465 12,31 20,71 22,118 25,35 43,90 54,163 -47,55 -71,83 -71,83 -65,-6 -126,-11 -184,-14 -49,-29 -94,-67 -138,-115 -6,25 -12,60 -19,105 94,121 212,222 356,302zm-617 -1867c-89,-7 -162,129 -57,194 7,-15 22,-25 39,-25 17,1 32,11 37,27 183,33 114,278 285,272 -145,-43 -37,-458 -304,-469zm4 983c45,9 68,14 68,14 52,73 80,187 30,205 -34,2 -50,2 -51,-5 -1,-14 -6,-66 -14,-154 -3,-25 -18,-29 -45,-27 9,13 14,19 14,19l-10 27 -46 0c-7,0 -13,-6 -13,-13l0 0c0,-7 6,-13 13,-13l31 0 -65 -29c-23,-10 -44,35 -74,106 23,-127 44,-137 163,-128zm3 205l-41 0c-7,0 -13,6 -13,13l0 0c0,7 6,13 13,13l33 0 8 -27zm-2 -52l-56 0c-7,0 -13,6 -13,13l0 0c0,7 6,13 13,13l46 0 10 -27zm0 -54l-56 0c-7,0 -13,6 -13,13l0 0c0,7 6,13 13,13l46 0 10 -27zm-440 79c-50,5 -92,19 -129,41 12,-39 54,-53 129,-41zm-19 61c-73,22 -130,45 -174,68 38,-58 79,-74 174,-68zm845 -60c109,-17 176,34 203,155 -45,-42 -105,-72 -181,-92 39,-6 79,-4 118,6 -41,-44 -87,-67 -140,-69zm-64 -301c-31,54 -90,102 -183,119 119,-70 182,-169 188,-299 33,44 55,96 63,150 0,0 9,-15 26,-45 80,51 131,136 137,230 -61,-61 -154,-85 -279,-73 23,-12 47,-22 73,-30 -17,-12 -27,-32 -26,-52zm-700 -180c-54,78 -15,262 188,299 -119,-70 -182,-169 -188,-299zm248 -185c6,60 9,110 8,151 -10,-11 -17,-21 -23,-31 -1,-43 -4,-87 -7,-132 5,3 13,7 23,13zm74 41l0 168c-8,-6 -15,-11 -22,-17l0 -163c7,4 14,8 22,12zm54 201c1,-66 1,-133 0,-199 13,-8 26,-15 39,-24 0,21 1,66 1,134 10,-7 18,-15 26,-24 0,0 2,-44 7,-131 13,-8 26,-17 39,-26 2,163 -23,197 -112,270zm-24 -468c0,130 0,196 0,196 0,0 -45,-19 -135,-57 0,0 0,9 1,27 0,0 44,24 132,71 0,0 47,-24 141,-73 2,-107 -65,-159 -138,-163zm0 1085c65,-1 130,6 194,21 0,0 5,-6 16,-18 -67,-24 -138,-36 -210,-35 -71,-1 -143,11 -210,35 11,12 16,18 16,18 64,-14 129,-21 194,-21zm0 -66c101,1 186,18 256,51 -9,26 -24,52 -45,79 0,0 11,6 32,17 34,-37 54,-76 59,-117 -102,-45 -202,-67 -302,-67 -99,0 -200,22 -302,67 5,41 25,80 59,117 21,-11 32,-17 32,-17 -21,-26 -36,-53 -45,-79 70,-34 155,-51 256,-51zm0 -480c-44,0 -79,35 -79,79 0,34 21,63 51,74l0 -38c-11,-8 -18,-21 -18,-36 0,-25 20,-45 45,-45 25,0 45,20 45,45 0,15 -7,28 -18,36l0 38c30,-11 51,-40 51,-74 0,-44 -35,-79 -79,-79zm0 54c-14,0 -25,11 -25,25 0,14 11,25 25,25 14,0 25,-11 25,-25 0,-14 -11,-25 -25,-25zm-316 133c-158,48 -250,98 -276,150 13,-93 105,-143 276,-150zm65 44c-75,26 -112,39 -112,39 61,37 56,29 147,-10 0,0 -12,-10 -35,-29zm38 132c-196,120 -348,193 -427,246 27,-48 65,-86 112,-112 0,0 123,-68 368,-205 -31,53 -26,98 14,136 -34,-5 -61,-31 -67,-65zm526 -177c158,48 250,98 276,150 -13,-93 -105,-143 -276,-150zm-65 44c75,26 112,39 112,39 -61,37 -56,29 -147,-10 0,0 12,-10 35,-29zm-38 132c196,120 348,193 427,246 -27,-48 -65,-86 -112,-112 0,0 -123,-68 -368,-205 31,53 26,98 -14,136 34,-5 61,-31 67,-65z"/>
   <g>
    <path class="fil2" d="M1296 3140c-25,26 -51,39 -78,39 -8,0 -15,-1 -22,-3 -7,-2 -16,-5 -26,-10 -10,-5 -19,-8 -27,-10 -14,16 -28,24 -39,24 -4,0 -7,-1 -10,-4 -3,-3 -4,-6 -4,-10 0,-8 4,-15 12,-21 8,-6 19,-10 34,-13 6,-8 10,-17 12,-25 2,-8 3,-21 4,-40 2,-38 12,-68 30,-89 18,-21 38,-32 60,-32 15,0 27,5 36,14 9,9 14,21 14,36 0,17 -5,32 -15,44 -10,13 -21,19 -34,19 -7,0 -12,-2 -16,-6 -4,-4 -6,-9 -6,-15 0,-3 1,-7 2,-12 3,3 7,5 11,5 7,0 14,-4 19,-13 5,-9 8,-19 8,-31 0,-9 -2,-16 -6,-22 -4,-5 -10,-8 -17,-8 -9,0 -16,3 -21,9 -5,6 -8,14 -10,23 -2,9 -4,23 -6,43 -2,20 -6,37 -11,52 -5,15 -15,30 -29,45 9,-1 17,0 24,2 7,2 16,5 29,9 13,5 23,7 32,7 18,0 34,-9 50,-27l0 18z"/>
    <path id="1" class="fil2" d="M1440 3140c-5,5 -11,8 -16,10 -5,2 -9,3 -12,3 -8,0 -15,-3 -23,-9 -15,23 -33,35 -53,35 -12,0 -22,-5 -30,-14 -8,-9 -12,-22 -12,-37 0,-25 9,-46 26,-63 17,-18 38,-26 62,-26 9,0 16,1 20,3 4,2 7,4 8,7 1,3 1,6 1,10 0,20 -5,45 -16,75 5,5 11,8 17,8 7,0 16,-6 28,-19l0 18zm-53 -91c-2,-1 -4,-1 -7,-1 -14,0 -25,7 -33,22 -8,15 -12,32 -12,52 0,11 2,19 5,25 3,6 8,9 14,9 8,0 16,-7 25,-21 -10,-13 -15,-27 -15,-41 0,-17 8,-32 22,-45z"/>
    <path id="2" class="fil2" d="M1560 3140c-27,26 -48,39 -62,39 -7,0 -12,-3 -17,-8 -5,-5 -7,-12 -7,-20 0,-15 8,-35 24,-61 -8,4 -17,7 -26,9 -7,13 -18,27 -33,42l-4 0 0 -14c8,-9 16,-18 23,-28 -9,-4 -14,-10 -14,-18 0,-8 3,-17 8,-26 6,-9 13,-14 23,-14 8,0 13,4 13,13 0,7 -2,16 -7,29 18,-2 33,-16 47,-41l15 -1 -15 41c-6,17 -10,29 -12,35 -2,6 -3,12 -3,17 0,5 1,8 3,11 2,3 5,4 8,4 4,0 8,-1 11,-4 4,-3 11,-10 24,-21l0 18z"/>
    <path id="3" class="fil2" d="M1681 3140c-14,13 -26,23 -37,30 -11,6 -23,10 -36,10 -15,0 -26,-5 -35,-14 -9,-9 -13,-22 -13,-37 0,-23 8,-43 24,-62 16,-18 33,-28 52,-28 10,0 18,3 24,8 6,5 9,12 9,20 0,22 -23,40 -70,54 4,21 15,32 34,32 7,0 14,-2 20,-6 6,-4 16,-12 29,-25l0 18zm-84 -30c27,-8 41,-22 41,-43 0,-10 -4,-15 -11,-15 -7,0 -14,5 -20,16 -6,11 -10,25 -10,42z"/>
    <path id="4" class="fil2" d="M1917 3140c-13,13 -25,23 -34,29 -10,7 -19,10 -28,10 -7,0 -13,-2 -17,-7 -4,-5 -6,-11 -6,-20 0,-12 3,-26 9,-44 6,-18 9,-29 9,-32 0,-3 -2,-5 -5,-5 -1,0 -2,0 -4,1 -2,1 -3,2 -5,3 -2,1 -4,3 -7,5 -2,2 -5,5 -7,7 -3,3 -6,6 -8,9 -5,6 -8,10 -8,14l-5 23 -10 38 -41 7 16 -66c1,-5 3,-12 4,-21 2,-9 2,-15 2,-17 0,-4 -1,-5 -4,-5 -1,0 -2,0 -3,1 -2,1 -3,2 -5,3 -2,2 -5,4 -8,6 -3,3 -6,5 -9,9 -4,4 -7,7 -11,12 -5,6 -8,13 -10,20 -2,9 -3,18 -3,25 -1,7 -1,15 -1,24l-36 9c-1,-12 -1,-23 -1,-31 0,-20 2,-37 6,-51 4,-15 11,-32 20,-51l39 -7c-7,17 -12,34 -16,50 29,-34 51,-50 66,-50 6,0 10,2 14,7 3,5 5,11 5,18 0,3 -1,10 -2,19 18,-18 31,-30 39,-35 8,-6 15,-8 22,-8 6,0 11,2 14,7 4,5 6,11 6,18 0,11 -3,26 -9,44 -6,18 -9,30 -9,36 0,6 2,9 7,9 3,0 7,-2 12,-6 5,-4 14,-12 26,-25l0 18z"/>
    <path id="5" class="fil2" d="M2166 2974c-11,4 -20,6 -29,6 -5,0 -11,-1 -18,-4 -7,-3 -12,-4 -15,-4 -8,0 -15,3 -21,9 -6,6 -9,13 -9,21 0,7 3,13 10,18 4,3 5,5 5,7 0,3 -2,7 -6,12 -4,5 -8,7 -12,7 -4,0 -8,-3 -12,-9 -4,-6 -5,-12 -5,-20 0,-16 8,-32 23,-48 15,-16 31,-24 47,-24 5,0 11,1 18,4 7,3 14,4 19,4 6,0 11,-2 17,-6 2,-1 4,-2 5,-2 2,0 4,1 6,2 3,2 4,4 4,5 0,1 -3,5 -9,11 -9,9 -14,20 -18,31 -3,11 -7,28 -10,51 -3,23 -7,42 -11,57 -4,15 -11,28 -19,40 -9,12 -19,21 -30,27 -12,6 -24,9 -38,9 -16,0 -30,-4 -40,-11 -10,-8 -15,-15 -15,-22 0,-4 4,-9 12,-16 8,-7 13,-10 15,-10 3,0 5,1 6,3 1,2 1,6 1,12 0,9 2,17 6,23 4,6 10,9 17,9 10,0 19,-5 26,-16 7,-11 13,-30 17,-59 5,-28 11,-50 18,-65 8,-15 22,-33 45,-53z"/>
    <path id="6" class="fil2" d="M2261 3067c8,-9 15,-16 22,-21 7,-4 14,-7 23,-7 11,0 20,4 26,12 7,8 10,19 10,33 0,24 -8,45 -24,65 -16,20 -34,30 -53,30 -5,0 -10,-1 -13,-2 -3,-1 -7,-4 -12,-8 -8,34 -13,61 -15,81l-41 7c8,-50 17,-101 29,-152 -14,19 -24,30 -29,34l-4 0 0 -14c20,-22 37,-49 50,-80l36 -7 -6 27zm-19 86c6,9 12,13 18,13 11,0 20,-8 29,-25 8,-16 12,-32 12,-48 0,-8 -2,-15 -5,-20 -3,-5 -8,-8 -13,-8 -4,0 -9,2 -13,6 -5,4 -8,8 -10,13 -2,5 -5,14 -8,26l-10 42z"/>
    <path id="7" class="fil2" d="M2418 3046c7,-2 15,-4 22,-5 7,-1 12,-2 14,-2 1,0 2,0 2,1 0,2 0,3 -1,5 -2,5 -3,10 -3,14 0,6 3,13 10,23 6,10 10,19 10,27 0,16 -8,32 -24,47 -16,15 -32,23 -49,23 -7,0 -14,-2 -20,-6 -6,-4 -9,-8 -9,-12 0,-3 3,-7 9,-15 6,-7 10,-11 13,-11 3,0 6,4 9,13 3,9 7,13 14,13 7,0 13,-3 18,-9 6,-6 9,-13 9,-20 0,-7 -4,-16 -11,-27 -7,-11 -12,-21 -15,-28 -12,20 -28,41 -47,62l-4 0 0 -14c26,-28 44,-54 53,-80z"/>
    <path id="8" class="fil2" d="M2674 3140c-14,13 -26,23 -36,30 -10,6 -18,10 -26,10 -8,0 -15,-3 -19,-10 -5,-7 -7,-16 -7,-28 -12,13 -22,22 -32,29 -9,6 -18,9 -27,9 -8,0 -15,-3 -20,-10 -5,-7 -7,-16 -7,-27 0,-22 8,-54 22,-94l43 -9c-18,52 -27,85 -27,99 0,10 4,15 12,15 6,0 13,-5 21,-14 8,-9 13,-17 16,-24l21 -69 44 -9c-10,32 -17,55 -21,68 -4,13 -6,22 -6,27 0,10 3,15 10,15 6,0 14,-5 25,-15l14 -13 0 18z"/>
    <path id="9" class="fil2" d="M2911 3140c-13,13 -25,23 -34,29 -10,7 -19,10 -28,10 -7,0 -13,-2 -17,-7 -4,-5 -6,-11 -6,-20 0,-12 3,-26 9,-44 6,-18 9,-29 9,-32 0,-3 -2,-5 -5,-5 -1,0 -2,0 -4,1 -2,1 -3,2 -5,3 -2,1 -4,3 -7,5 -2,2 -5,5 -7,7 -3,3 -6,6 -8,9 -5,6 -8,10 -8,14l-5 23 -10 38 -41 7 16 -66c1,-5 3,-12 4,-21 2,-9 2,-15 2,-17 0,-4 -1,-5 -4,-5 -1,0 -2,0 -3,1 -2,1 -3,2 -5,3 -2,2 -5,4 -8,6 -3,3 -6,5 -9,9 -4,4 -7,7 -11,12 -5,6 -8,13 -10,20 -2,9 -3,18 -3,25 -1,7 -1,15 -1,24l-36 9c-1,-12 -1,-23 -1,-31 0,-20 2,-37 6,-51 4,-15 11,-32 20,-51l39 -7c-7,17 -12,34 -16,50 29,-34 51,-50 66,-50 6,0 10,2 14,7 3,5 5,11 5,18 0,3 -1,10 -2,19 18,-18 31,-30 39,-35 8,-6 15,-8 22,-8 6,0 11,2 14,7 4,5 6,11 6,18 0,11 -3,26 -9,44 -6,18 -9,30 -9,36 0,6 2,9 7,9 3,0 7,-2 12,-6 5,-4 14,-12 26,-25l0 18z"/>
    <path class="fil2" d="M1514 3279l23 0 0 2 -1 0c-1,0 -2,0 -4,1 -2,1 -3,2 -5,3 -1,1 -3,4 -5,7l-16 25 0 17c0,4 0,7 1,8 1,1 3,2 6,2l2 0 0 2 -29 0 0 -2 2 0c3,0 5,-1 6,-3 1,-1 1,-3 1,-7l0 -16 -18 -28c-2,-3 -4,-5 -4,-6 -1,-1 -2,-2 -5,-3 -1,0 -2,0 -3,0l0 -2 29 0 0 2 -1 0c-2,0 -3,0 -4,1 -1,1 -2,2 -2,3 0,1 1,3 3,6l14 22 13 -21c2,-3 3,-5 3,-7 0,-1 0,-2 -1,-2 0,-1 -1,-1 -2,-2 -1,0 -2,-1 -4,-1l0 -2z"/>
    <path id="1" class="fil2" d="M1561 3300c7,0 12,3 17,8 4,4 5,10 5,15 0,4 -1,8 -3,12 -2,4 -5,7 -8,9 -3,2 -7,3 -11,3 -7,0 -12,-3 -16,-8 -3,-5 -5,-10 -5,-15 0,-4 1,-8 3,-12 2,-4 5,-7 8,-9 3,-2 7,-3 11,-3zm-2 3c-2,0 -3,1 -5,2 -2,1 -3,3 -4,5 -1,3 -2,6 -2,10 0,7 1,12 4,17 3,5 6,7 10,7 3,0 6,-1 8,-4 2,-3 3,-7 3,-14 0,-8 -2,-14 -5,-19 -2,-3 -5,-5 -9,-5z"/>
    <path id="2" class="fil2" d="M1635 3301l0 28c0,5 0,8 0,9 0,1 1,2 1,2 1,0 1,1 2,1 1,0 2,0 3,-1l1 2 -14 6 -2 0 0 -9c-4,4 -7,7 -9,8 -2,1 -4,2 -6,2 -3,0 -5,-1 -7,-2 -2,-1 -3,-3 -4,-6 -1,-2 -1,-6 -1,-10l0 -20c0,-2 0,-4 -1,-4 0,-1 -1,-1 -2,-2 -1,0 -3,-1 -5,-1l0 -2 16 0 0 30c0,4 1,7 2,8 1,1 3,2 5,2 1,0 3,0 5,-1 2,-1 4,-3 6,-5l0 -26c0,-3 0,-4 -1,-5 -1,-1 -3,-1 -6,-1l0 -2 15 0z"/>
    <path id="3" class="fil2" d="M1666 3300l0 10c4,-7 8,-10 12,-10 2,0 3,1 4,2 1,1 2,2 2,4 0,1 0,2 -1,3 -1,1 -2,1 -3,1 -1,0 -2,-1 -4,-2 -1,-1 -3,-2 -3,-2 -1,0 -1,0 -2,1 -1,1 -3,4 -5,7l0 22c0,3 0,4 1,6 0,1 1,2 2,2 1,1 3,1 5,1l0 2 -23 0 0 -2c2,0 4,0 5,-1 1,-1 1,-1 2,-3 0,-1 0,-2 0,-5l0 -18c0,-5 0,-8 0,-9 0,-1 -1,-2 -1,-2 -1,0 -1,-1 -2,-1 -1,0 -2,0 -3,1l0 -2 14 -6 2 0z"/>
    <path id="4" class="fil2" d="M1762 3278l0 23 -2 0c-1,-4 -2,-8 -3,-11 -2,-3 -4,-5 -7,-6 -3,-2 -6,-2 -9,-2 -3,0 -6,1 -9,3 -2,2 -3,4 -3,7 0,2 1,4 2,6 2,2 7,6 15,10 6,3 11,6 13,8 2,2 4,4 5,6 1,2 2,5 2,8 0,5 -2,9 -6,13 -4,4 -9,6 -15,6 -2,0 -4,0 -6,0 -1,0 -3,-1 -6,-2 -3,-1 -5,-2 -6,-2 -1,0 -1,0 -2,1 0,1 -1,2 -1,3l-2 0 0 -23 2 0c1,5 2,8 3,11 1,2 4,4 7,6 3,2 6,2 10,2 4,0 7,-1 10,-3 2,-2 4,-5 4,-8 0,-2 0,-3 -1,-5 -1,-2 -2,-3 -4,-5 -1,-1 -5,-3 -11,-6 -6,-3 -10,-6 -12,-8 -2,-2 -4,-4 -6,-6 -1,-2 -2,-5 -2,-8 0,-5 2,-9 6,-12 4,-3 8,-5 14,-5 4,0 7,1 11,3 2,1 3,1 4,1 1,0 2,0 2,-1 1,-1 1,-2 1,-3l2 0z"/>
    <path id="5" class="fil2" d="M1797 3276l0 60c0,3 0,5 1,6 0,1 1,2 2,2 1,0 2,1 5,1l0 2 -22 0 0 -2c2,0 3,0 4,-1 1,0 1,-1 2,-2 0,-1 1,-3 1,-6l0 -41c0,-5 0,-8 0,-9 0,-1 -1,-2 -1,-2 -1,0 -1,-1 -2,-1 -1,0 -2,0 -3,1l-1 -2 13 -6 2 0z"/>
    <path id="6" class="fil2" d="M1838 3300c7,0 12,3 17,8 4,4 5,10 5,15 0,4 -1,8 -3,12 -2,4 -5,7 -8,9 -3,2 -7,3 -11,3 -7,0 -12,-3 -16,-8 -3,-5 -5,-10 -5,-15 0,-4 1,-8 3,-12 2,-4 5,-7 8,-9 3,-2 7,-3 11,-3zm-2 3c-2,0 -3,1 -5,2 -2,1 -3,3 -4,5 -1,3 -2,6 -2,10 0,7 1,12 4,17 3,5 6,7 10,7 3,0 6,-1 8,-4 2,-3 3,-7 3,-14 0,-8 -2,-14 -5,-19 -2,-3 -5,-5 -9,-5z"/>
    <path id="7" class="fil2" d="M1885 3330c-3,-1 -5,-3 -6,-6 -1,-2 -2,-5 -2,-8 0,-4 2,-8 5,-12 3,-3 8,-5 13,-5 4,0 8,1 11,3l10 0c1,0 2,0 2,0 0,0 0,0 0,0 0,0 0,1 0,2 0,1 0,1 0,2 0,0 0,0 -1,0 0,0 -1,0 -3,0l-6 0c2,2 3,5 3,9 0,4 -2,8 -5,11 -3,3 -8,4 -13,4 -2,0 -5,0 -7,-1 -1,1 -2,2 -3,3 -1,1 -1,2 -1,2 0,1 0,1 1,2 1,1 2,1 3,1 1,0 3,0 7,0 7,0 11,0 13,1 3,0 6,2 7,3 2,2 3,4 3,7 0,4 -2,7 -5,10 -5,5 -12,7 -20,7 -6,0 -12,-1 -16,-4 -2,-2 -4,-3 -4,-5 0,-1 0,-2 1,-2 1,-1 2,-3 3,-5 0,0 2,-2 5,-5 -2,-1 -3,-2 -4,-3 -1,-1 -1,-2 -1,-3 0,-1 0,-3 1,-4 1,-2 3,-4 6,-7zm9 -28c-2,0 -4,1 -6,3 -2,2 -2,5 -2,9 0,5 1,9 3,12 2,2 4,3 7,3 2,0 5,-1 6,-3 2,-2 2,-5 2,-9 0,-5 -1,-9 -3,-12 -2,-2 -4,-3 -6,-3zm-9 44c-2,2 -3,3 -3,5 -1,1 -1,3 -1,4 0,2 1,3 3,4 3,2 8,3 14,3 6,0 10,-1 13,-3 3,-2 4,-4 4,-7 0,-2 -1,-3 -3,-4 -2,-1 -5,-1 -10,-1 -7,0 -13,-1 -17,-1z"/>
    <path id="8" class="fil2" d="M1955 3340c-5,4 -8,6 -9,6 -2,1 -4,1 -6,1 -3,0 -6,-1 -8,-3 -2,-2 -3,-5 -3,-8 0,-2 0,-4 1,-6 1,-2 4,-4 7,-6 3,-2 9,-4 17,-7l0 -2c0,-5 -1,-8 -2,-9 -1,-2 -4,-3 -6,-3 -2,0 -4,1 -5,2 -1,1 -2,2 -2,4l0 3c0,2 0,3 -1,4 -1,1 -2,1 -3,1 -1,0 -2,0 -3,-1 -1,-1 -1,-2 -1,-4 0,-3 1,-5 4,-8 3,-2 7,-4 12,-4 4,0 7,1 10,2 2,1 3,3 4,5 1,1 1,4 1,9l0 15c0,4 0,7 0,8 0,1 0,2 1,2 0,0 1,0 1,0 1,0 1,0 1,0 1,0 2,-2 4,-4l0 3c-4,5 -7,7 -11,7 -2,0 -3,-1 -4,-2 -1,-1 -1,-3 -1,-6zm0 -3l0 -17c-5,2 -8,3 -10,4 -3,1 -4,3 -6,5 -1,2 -2,3 -2,5 0,2 1,4 2,6 1,2 3,2 5,2 3,0 6,-2 10,-5z"/>
    <path id="9" class="fil2" d="M1994 3309c5,-6 10,-10 15,-10 2,0 5,1 6,2 2,1 3,3 4,6 1,2 1,5 1,9l0 19c0,3 0,5 1,6 0,1 1,1 2,2 1,0 2,1 4,1l0 2 -22 0 0 -2 1 0c2,0 4,0 4,-1 1,-1 1,-2 2,-3 0,0 0,-2 0,-5l0 -19c0,-4 -1,-7 -2,-9 -1,-2 -3,-3 -5,-3 -4,0 -8,2 -12,6l0 24c0,3 0,5 1,6 0,1 1,2 2,2 1,0 2,1 5,1l0 2 -22 0 0 -2 1 0c2,0 4,-1 5,-2 1,-1 1,-3 1,-7l0 -17c0,-5 0,-9 0,-10 0,-1 -1,-2 -1,-2 -1,0 -1,-1 -2,-1 -1,0 -2,0 -3,1l-1 -2 14 -6 2 0 0 10z"/>
    <path id="10" class="fil2" d="M2123 3278l2 21 -2 0c-2,-5 -4,-9 -7,-12 -4,-4 -9,-6 -15,-6 -9,0 -15,3 -19,10 -4,6 -6,12 -6,20 0,6 1,12 4,17 2,5 6,9 10,12 4,2 8,4 12,4 2,0 5,0 7,-1 2,-1 5,-2 7,-3l0 -19c0,-3 0,-6 -1,-7 -1,-1 -1,-2 -2,-2 -1,-1 -3,-1 -6,-1l0 -2 26 0 0 2 -1 0c-3,0 -4,1 -5,3 -1,1 -1,4 -1,7l0 21c-4,2 -8,4 -11,5 -4,1 -8,1 -12,1 -13,0 -23,-4 -29,-12 -5,-6 -8,-13 -8,-22 0,-6 1,-12 4,-17 3,-6 8,-11 14,-15 5,-3 11,-4 17,-4 2,0 5,0 7,1 2,0 5,1 8,3 2,1 3,1 4,1 1,0 1,0 2,-1 0,-1 1,-2 1,-3l2 0z"/>
    <path id="11" class="fil2" d="M2166 3300c7,0 12,3 17,8 4,4 5,10 5,15 0,4 -1,8 -3,12 -2,4 -5,7 -8,9 -3,2 -7,3 -11,3 -7,0 -12,-3 -16,-8 -3,-5 -5,-10 -5,-15 0,-4 1,-8 3,-12 2,-4 5,-7 8,-9 3,-2 7,-3 11,-3zm-2 3c-2,0 -3,1 -5,2 -2,1 -3,3 -4,5 -1,3 -2,6 -2,10 0,7 1,12 4,17 3,5 6,7 10,7 3,0 6,-1 8,-4 2,-3 3,-7 3,-14 0,-8 -2,-14 -5,-19 -2,-3 -5,-5 -9,-5z"/>
    <path id="12" class="fil2" d="M2208 3318c0,7 2,12 5,16 3,4 7,6 12,6 3,0 6,-1 8,-2 2,-2 4,-4 6,-8l2 1c-1,5 -3,9 -6,12 -3,4 -7,6 -12,6 -5,0 -10,-2 -14,-6 -4,-4 -6,-10 -6,-17 0,-8 2,-14 6,-18 4,-4 9,-6 15,-6 5,0 9,2 12,5 3,3 5,8 5,13l-31 0zm0 -3l21 0c0,-3 -1,-5 -1,-6 -1,-2 -2,-3 -4,-4 -2,-1 -3,-2 -5,-2 -3,0 -5,1 -7,3 -2,2 -3,5 -4,9z"/>
    <path id="13" class="fil2" d="M2281 3300l0 15 -2 0c-1,-5 -3,-8 -5,-10 -2,-2 -4,-3 -7,-3 -2,0 -4,1 -6,2 -1,1 -2,3 -2,4 0,2 1,3 2,5 1,1 3,3 6,4l7 3c7,3 10,8 10,13 0,4 -2,7 -5,10 -3,3 -7,4 -10,4 -3,0 -6,0 -9,-1 -1,0 -2,0 -3,0 -1,0 -1,0 -2,1l-2 0 0 -16 2 0c1,5 3,8 5,10 3,2 6,4 9,4 2,0 4,-1 6,-2 1,-1 2,-3 2,-5 0,-2 -1,-4 -2,-6 -2,-2 -5,-3 -10,-6 -5,-2 -8,-4 -9,-6 -1,-2 -2,-4 -2,-7 0,-4 1,-7 4,-9 3,-3 6,-4 10,-4 2,0 4,0 6,1 2,1 3,1 3,1 1,0 1,0 1,0 0,0 1,-1 1,-2l2 0z"/>
    <path id="14" class="fil2" d="M2341 3311l31 0 0 -19c0,-3 0,-6 -1,-7 0,-1 -1,-2 -2,-2 -1,-1 -3,-1 -5,-1l-2 0 0 -2 29 0 0 2 -2 0c-2,0 -3,0 -5,1 -1,1 -2,1 -2,2 0,1 -1,3 -1,7l0 43c0,3 0,6 1,7 0,1 1,2 2,2 1,1 3,1 5,1l2 0 0 2 -29 0 0 -2 2 0c3,0 5,-1 6,-2 1,-1 1,-4 1,-8l0 -20 -31 0 0 20c0,3 0,6 1,7 0,1 1,2 2,2 1,1 3,1 4,1l2 0 0 2 -29 0 0 -2 2 0c3,0 5,-1 6,-2 1,-1 1,-4 1,-8l0 -43c0,-3 0,-6 -1,-7 0,-1 -1,-2 -2,-2 -1,-1 -3,-1 -5,-1l-2 0 0 -2 29 0 0 2 -2 0c-2,0 -3,0 -4,1 -1,1 -2,1 -2,2 0,1 -1,3 -1,7l0 19z"/>
    <path id="15" class="fil2" d="M2410 3318c0,7 2,12 5,16 3,4 7,6 12,6 3,0 6,-1 8,-2 2,-2 4,-4 6,-8l2 1c-1,5 -3,9 -6,12 -3,4 -7,6 -12,6 -5,0 -10,-2 -14,-6 -4,-4 -6,-10 -6,-17 0,-8 2,-14 6,-18 4,-4 9,-6 15,-6 5,0 9,2 12,5 3,3 5,8 5,13l-31 0zm0 -3l21 0c0,-3 -1,-5 -1,-6 -1,-2 -2,-3 -4,-4 -2,-1 -3,-2 -5,-2 -3,0 -5,1 -7,3 -2,2 -3,5 -4,9z"/>
    <path id="16" class="fil2" d="M2467 3300l0 10c4,-7 8,-10 12,-10 2,0 3,1 4,2 1,1 2,2 2,4 0,1 0,2 -1,3 -1,1 -2,1 -3,1 -1,0 -2,-1 -4,-2 -1,-1 -2,-2 -3,-2 -1,0 -1,0 -2,1 -1,1 -3,4 -5,7l0 22c0,3 0,4 1,6 0,1 1,2 2,2 1,1 3,1 5,1l0 2 -23 0 0 -2c2,0 4,0 5,-1 1,-1 1,-1 2,-3 0,-1 0,-2 0,-5l0 -18c0,-5 0,-8 0,-9 0,-1 -1,-2 -1,-2 -1,0 -1,-1 -2,-1 -1,0 -2,0 -3,1l0 -2 14 -6 2 0z"/>
    <path id="17" class="fil2" d="M2502 3318c0,7 2,12 5,16 3,4 7,6 12,6 3,0 6,-1 8,-2 2,-2 4,-4 6,-8l2 1c-1,5 -3,9 -6,12 -3,4 -7,6 -12,6 -5,0 -10,-2 -14,-6 -4,-4 -6,-10 -6,-17 0,-8 2,-14 6,-18 4,-4 9,-6 15,-6 5,0 9,2 12,5 3,3 5,8 5,13l-31 0zm0 -3l21 0c0,-3 -1,-5 -1,-6 -1,-2 -2,-3 -4,-4 -2,-1 -3,-2 -5,-2 -3,0 -5,1 -7,3 -2,2 -3,5 -4,9z"/>
   </g>
  </g>
  <g id="_2771281290608">
   <path class="fil1" d="M6639 2599c-19,17 -39,34 -60,49 -99,-61 -178,-127 -236,-197l126 269c-112,63 -234,102 -358,116l0 -703 -74 10 0 698c-25,1 -50,1 -75,0l0 -698 -74 -10 0 703c-124,-15 -246,-53 -358,-116l126 -269c-58,70 -137,135 -236,197 -20,-15 -40,-32 -60,-49 144,-80 263,-181 356,-302 -7,-45 -14,-80 -19,-105 -43,48 -89,86 -138,115 -58,3 -119,7 -184,14 0,0 -24,-28 -71,-83 11,-74 29,-128 54,-163 2,-48 9,-87 22,-118 -59,-252 25,-412 179,-465 15,-60 46,-110 95,-151 25,55 54,93 88,113l16 -4c-1,83 41,142 122,175 -52,-48 -87,-116 -89,-183l39 -10c6,33 29,68 69,106 13,-12 27,-22 41,-32 -50,-30 -78,-65 -85,-104 0,0 1,-1 4,-3 -22,-36 -34,-77 -35,-123 0,0 -7,-4 -20,-12 0,0 0,-34 -1,-101 0,0 7,-4 20,-12 5,-81 57,-146 125,-166l0 -21c0,-15 13,-28 28,-28l48 0c15,0 28,13 28,28l0 21c67,20 120,85 125,166 13,8 20,12 20,12 0,67 -1,101 -1,101 -14,8 -20,12 -20,12 -1,45 -13,86 -35,123 3,2 4,3 4,3 -7,39 -35,74 -85,104 15,9 29,20 41,32 40,-38 63,-74 69,-106l38 9c-2,67 -37,135 -89,184 81,-33 123,-93 122,-175l17 4c34,-21 63,-58 88,-113 49,41 81,92 95,151 154,53 238,213 179,465 12,31 20,71 22,118 25,35 43,90 54,163 -47,55 -71,83 -71,83 -65,-6 -126,-11 -184,-14 -49,-29 -94,-67 -138,-115 -6,25 -12,60 -19,105 94,121 212,222 356,302zm-617 -1867c-89,-7 -162,129 -57,194 7,-15 22,-25 39,-25 17,1 32,11 37,27 183,33 114,278 285,272 -145,-43 -37,-458 -304,-469zm4 983c45,9 68,14 68,14 52,73 80,187 30,205 -34,2 -50,2 -51,-5 -1,-14 -6,-66 -14,-154 -3,-25 -18,-29 -45,-27 9,13 14,19 14,19l-10 27 -46 0c-7,0 -13,-6 -13,-13l0 0c0,-7 6,-13 13,-13l31 0 -65 -29c-23,-10 -44,35 -74,106 23,-127 44,-137 163,-128zm3 205l-41 0c-7,0 -13,6 -13,13l0 0c0,7 6,13 13,13l33 0 8 -27zm-2 -52l-56 0c-7,0 -13,6 -13,13l0 0c0,7 6,13 13,13l46 0 10 -27zm0 -54l-56 0c-7,0 -13,6 -13,13l0 0c0,7 6,13 13,13l46 0 10 -27zm-440 79c-50,5 -92,19 -129,41 12,-39 54,-53 129,-41zm-19 61c-73,22 -130,45 -174,68 38,-58 79,-74 174,-68zm845 -60c109,-17 176,34 203,155 -45,-42 -105,-72 -181,-92 39,-6 79,-4 118,6 -41,-44 -87,-67 -140,-69zm-64 -301c-31,54 -90,102 -183,119 119,-70 182,-169 188,-299 33,44 55,96 63,150 0,0 9,-15 26,-45 80,51 131,136 137,230 -61,-61 -154,-85 -279,-73 23,-12 47,-22 73,-30 -17,-12 -27,-32 -26,-52zm-700 -180c-54,78 -15,262 188,299 -119,-70 -182,-169 -188,-299zm248 -185c6,60 9,110 8,151 -10,-11 -17,-21 -23,-31 -1,-43 -4,-87 -7,-132 5,3 13,7 23,13zm74 41l0 168c-8,-6 -15,-11 -22,-17l0 -163c7,4 14,8 22,12zm54 201c1,-66 1,-133 0,-199 13,-8 26,-15 39,-24 0,21 1,66 1,134 10,-7 18,-15 26,-24 0,0 2,-44 7,-131 13,-8 26,-17 39,-26 2,163 -23,197 -112,270zm-24 -468c0,130 0,196 0,196 0,0 -45,-19 -135,-57 0,0 0,9 1,27 0,0 44,24 132,71 0,0 47,-24 141,-73 2,-107 -65,-159 -138,-163zm0 1085c65,-1 130,6 194,21 0,0 5,-6 16,-18 -67,-24 -138,-36 -210,-35 -71,-1 -143,11 -210,35 11,12 16,18 16,18 64,-14 129,-21 194,-21zm0 -66c101,1 186,18 256,51 -9,26 -24,52 -45,79 0,0 11,6 32,17 34,-37 54,-76 59,-117 -102,-45 -202,-67 -302,-67 -99,0 -200,22 -302,67 5,41 25,80 59,117 21,-11 32,-17 32,-17 -21,-26 -36,-53 -45,-79 70,-34 155,-51 256,-51zm0 -480c-44,0 -79,35 -79,79 0,34 21,63 51,74l0 -38c-11,-8 -18,-21 -18,-36 0,-25 20,-45 45,-45 25,0 45,20 45,45 0,15 -7,28 -18,36l0 38c30,-11 51,-40 51,-74 0,-44 -35,-79 -79,-79zm0 54c-14,0 -25,11 -25,25 0,14 11,25 25,25 14,0 25,-11 25,-25 0,-14 -11,-25 -25,-25zm-316 133c-158,48 -250,98 -276,150 13,-93 105,-143 276,-150zm65 44c-75,26 -112,39 -112,39 61,37 56,29 147,-10 0,0 -12,-10 -35,-29zm38 132c-196,120 -348,193 -427,246 27,-48 65,-86 112,-112 0,0 123,-68 368,-205 -31,53 -26,98 14,136 -34,-5 -61,-31 -67,-65zm526 -177c158,48 250,98 276,150 -13,-93 -105,-143 -276,-150zm-65 44c75,26 112,39 112,39 -61,37 -56,29 -147,-10 0,0 12,-10 35,-29zm-38 132c196,120 348,193 427,246 -27,-48 -65,-86 -112,-112 0,0 -123,-68 -368,-205 31,53 26,98 -14,136 34,-5 61,-31 67,-65z"/>
   <g>
    <path class="fil3" d="M5296 3140c-25,26 -51,39 -78,39 -8,0 -15,-1 -22,-3 -7,-2 -16,-5 -26,-10 -10,-5 -19,-8 -27,-10 -14,16 -28,24 -39,24 -4,0 -7,-1 -10,-4 -3,-3 -4,-6 -4,-10 0,-8 4,-15 12,-21 8,-6 19,-10 34,-13 6,-8 10,-17 12,-25 2,-8 3,-21 4,-40 2,-38 12,-68 30,-89 18,-21 38,-32 60,-32 15,0 27,5 36,14 9,9 14,21 14,36 0,17 -5,32 -15,44 -10,13 -21,19 -34,19 -7,0 -12,-2 -16,-6 -4,-4 -6,-9 -6,-15 0,-3 1,-7 2,-12 3,3 7,5 11,5 7,0 14,-4 19,-13 5,-9 8,-19 8,-31 0,-9 -2,-16 -6,-22 -4,-5 -10,-8 -17,-8 -9,0 -16,3 -21,9 -5,6 -8,14 -10,23 -2,9 -4,23 -6,43 -2,20 -6,37 -11,52 -5,15 -15,30 -29,45 9,-1 17,0 24,2 7,2 16,5 29,9 13,5 23,7 32,7 18,0 34,-9 50,-27l0 18z"/>
    <path id="1" class="fil3" d="M5440 3140c-5,5 -11,8 -16,10 -5,2 -9,3 -12,3 -8,0 -15,-3 -23,-9 -15,23 -33,35 -53,35 -12,0 -22,-5 -30,-14 -8,-9 -12,-22 -12,-37 0,-25 9,-46 26,-63 17,-18 38,-26 62,-26 9,0 16,1 20,3 4,2 7,4 8,7 1,3 1,6 1,10 0,20 -5,45 -16,75 5,5 11,8 17,8 7,0 16,-6 28,-19l0 18zm-53 -91c-2,-1 -4,-1 -7,-1 -14,0 -25,7 -33,22 -8,15 -12,32 -12,52 0,11 2,19 5,25 3,6 8,9 14,9 8,0 16,-7 25,-21 -10,-13 -15,-27 -15,-41 0,-17 8,-32 22,-45z"/>
    <path id="2" class="fil3" d="M5560 3140c-27,26 -48,39 -62,39 -7,0 -12,-3 -17,-8 -5,-5 -7,-12 -7,-20 0,-15 8,-35 24,-61 -8,4 -17,7 -26,9 -7,13 -18,27 -33,42l-4 0 0 -14c8,-9 16,-18 23,-28 -9,-4 -14,-10 -14,-18 0,-8 3,-17 8,-26 6,-9 13,-14 23,-14 8,0 13,4 13,13 0,7 -2,16 -7,29 18,-2 33,-16 47,-41l15 -1 -15 41c-6,17 -10,29 -12,35 -2,6 -3,12 -3,17 0,4 1,8 3,11 2,3 5,4 8,4 4,0 8,-1 11,-4 4,-3 11,-10 24,-21l0 18z"/>
    <path id="3" class="fil3" d="M5681 3140c-14,13 -26,23 -37,30 -11,6 -23,10 -36,10 -15,0 -26,-5 -35,-14 -9,-9 -13,-22 -13,-37 0,-23 8,-43 24,-62 16,-18 33,-28 52,-28 10,0 18,3 24,8 6,5 9,12 9,20 0,22 -23,40 -70,54 4,21 15,32 34,32 7,0 14,-2 20,-6 6,-4 16,-12 29,-25l0 18zm-84 -30c27,-8 41,-22 41,-43 0,-10 -4,-15 -11,-15 -7,0 -14,5 -20,16 -6,11 -10,25 -10,42z"/>
    <path id="4" class="fil3" d="M5917 3140c-13,13 -25,23 -34,29 -10,7 -19,10 -28,10 -7,0 -13,-2 -17,-7 -4,-5 -6,-11 -6,-20 0,-12 3,-26 9,-44 6,-18 9,-29 9,-32 0,-3 -2,-5 -5,-5 -1,0 -2,0 -4,1 -2,1 -3,2 -5,3 -2,1 -4,3 -7,5 -2,2 -5,5 -7,7 -3,3 -6,6 -8,9 -5,6 -8,10 -8,14l-5 23 -10 38 -41 7 16 -66c1,-5 3,-12 4,-21 2,-9 2,-15 2,-17 0,-4 -1,-5 -4,-5 -1,0 -2,0 -3,1 -2,1 -3,2 -5,3 -2,2 -5,4 -8,6 -3,3 -6,5 -9,9 -4,4 -7,7 -11,12 -5,6 -8,13 -10,20 -2,9 -3,18 -3,25 -1,7 -1,15 -1,24l-36 9c-1,-12 -1,-23 -1,-31 0,-20 2,-37 6,-51 4,-15 11,-32 20,-51l39 -7c-7,17 -12,34 -16,50 29,-34 51,-50 66,-50 6,0 10,2 14,7 3,5 5,11 5,18 0,3 -1,10 -2,19 18,-18 31,-30 39,-35 8,-6 15,-8 22,-8 6,0 11,2 14,7 4,5 6,11 6,18 0,11 -3,26 -9,44 -6,18 -9,30 -9,36 0,6 2,9 7,9 3,0 7,-2 12,-6 5,-4 14,-12 26,-25l0 18z"/>
    <path id="5" class="fil3" d="M6166 2974c-11,4 -20,6 -29,6 -5,0 -11,-1 -18,-4 -7,-3 -12,-4 -15,-4 -8,0 -15,3 -21,9 -6,6 -9,13 -9,21 0,7 3,13 10,18 4,3 5,5 5,7 0,3 -2,7 -6,12 -4,5 -8,7 -12,7 -4,0 -8,-3 -12,-9 -4,-6 -5,-12 -5,-20 0,-16 8,-32 23,-48 15,-16 31,-24 47,-24 5,0 11,1 18,4 7,3 14,4 19,4 6,0 11,-2 17,-6 2,-1 4,-2 5,-2 2,0 4,1 6,2 3,2 4,4 4,5 0,1 -3,5 -9,11 -9,9 -14,20 -18,31 -3,11 -7,28 -10,51 -3,23 -7,42 -11,57 -4,15 -11,28 -19,40 -9,12 -19,21 -30,27 -12,6 -24,9 -38,9 -16,0 -30,-4 -40,-11 -10,-8 -15,-15 -15,-22 0,-4 4,-9 12,-16 8,-7 13,-10 15,-10 3,0 5,1 6,3 1,2 1,6 1,12 0,9 2,17 6,23 4,6 10,9 17,9 10,0 19,-5 26,-16 7,-11 13,-30 17,-59 5,-28 11,-50 18,-65 8,-15 22,-33 45,-53z"/>
    <path id="6" class="fil3" d="M6261 3067c8,-9 15,-16 22,-21 7,-4 14,-7 23,-7 11,0 20,4 26,12 7,8 10,19 10,33 0,24 -8,45 -24,65 -16,20 -34,30 -53,30 -5,0 -10,-1 -13,-2 -3,-1 -7,-4 -12,-8 -8,34 -13,61 -15,81l-41 7c8,-50 17,-101 29,-152 -14,19 -24,30 -29,34l-4 0 0 -14c20,-22 37,-49 50,-80l36 -7 -6 27zm-19 86c6,9 12,13 18,13 11,0 20,-8 29,-25 8,-16 12,-32 12,-48 0,-8 -2,-15 -5,-20 -3,-5 -8,-8 -13,-8 -4,0 -9,2 -13,6 -5,4 -8,8 -10,13 -2,5 -5,14 -8,26l-10 42z"/>
    <path id="7" class="fil3" d="M6418 3046c7,-2 15,-4 22,-5 7,-1 12,-2 14,-2 1,0 2,0 2,1 0,2 0,3 -1,5 -2,5 -3,10 -3,14 0,6 3,13 10,23 6,10 10,19 10,27 0,16 -8,32 -24,47 -16,15 -32,23 -49,23 -7,0 -14,-2 -20,-6 -6,-4 -9,-8 -9,-12 0,-3 3,-7 9,-15 6,-7 10,-11 13,-11 3,0 6,4 9,13 3,9 7,13 14,13 7,0 13,-3 18,-9 6,-6 9,-13 9,-20 0,-7 -4,-16 -11,-27 -7,-11 -12,-21 -15,-28 -12,20 -28,41 -47,62l-4 0 0 -14c26,-28 44,-54 53,-80z"/>
    <path id="8" class="fil3" d="M6674 3140c-14,13 -26,23 -36,30 -10,6 -18,10 -26,10 -8,0 -15,-3 -19,-10 -5,-7 -7,-16 -7,-28 -12,13 -22,22 -32,29 -9,6 -18,9 -27,9 -8,0 -15,-3 -20,-10 -5,-7 -7,-16 -7,-27 0,-22 8,-54 22,-94l43 -9c-18,52 -27,85 -27,99 0,10 4,15 12,15 6,0 13,-5 21,-13 8,-9 13,-17 16,-24l21 -69 44 -9c-10,32 -17,55 -21,68 -4,13 -6,22 -6,27 0,10 3,15 10,15 6,0 14,-5 25,-15l14 -13 0 18z"/>
    <path id="9" class="fil3" d="M6911 3140c-13,13 -25,23 -34,29 -10,7 -19,10 -28,10 -7,0 -13,-2 -17,-7 -4,-5 -6,-11 -6,-20 0,-12 3,-26 9,-44 6,-18 9,-29 9,-32 0,-3 -2,-5 -5,-5 -1,0 -2,0 -4,1 -2,1 -3,2 -5,3 -2,1 -4,3 -7,5 -2,2 -5,5 -7,7 -3,3 -6,6 -8,9 -5,6 -8,10 -8,14l-5 23 -10 38 -41 7 16 -66c1,-5 3,-12 4,-21 2,-9 2,-15 2,-17 0,-4 -1,-5 -4,-5 -1,0 -2,0 -3,1 -2,1 -3,2 -5,3 -2,2 -5,4 -8,6 -3,3 -6,5 -9,9 -4,4 -7,7 -11,12 -5,6 -8,13 -10,20 -2,9 -3,18 -3,25 -1,7 -1,15 -1,24l-36 9c-1,-12 -1,-23 -1,-31 0,-20 2,-37 6,-51 4,-15 11,-32 20,-51l39 -7c-7,17 -12,34 -16,50 29,-34 51,-50 66,-50 6,0 10,2 14,7 3,5 5,11 5,18 0,3 -1,10 -2,19 18,-18 31,-30 39,-35 8,-6 15,-8 22,-8 6,0 11,2 14,7 4,5 6,11 6,18 0,11 -3,26 -9,44 -6,18 -9,30 -9,36 0,6 2,9 7,9 3,0 7,-2 12,-6 5,-4 14,-12 26,-25l0 18z"/>
    <path class="fil3" d="M5514 3279l23 0 0 2 -1 0c-1,0 -2,0 -4,1 -2,1 -3,2 -5,3 -1,1 -3,4 -5,7l-16 25 0 17c0,4 0,7 1,8 1,1 3,2 6,2l2 0 0 2 -29 0 0 -2 2 0c3,0 5,-1 6,-3 1,-1 1,-3 1,-7l0 -16 -18 -28c-2,-3 -4,-5 -4,-6 -1,-1 -2,-2 -5,-3 -1,0 -2,0 -3,0l0 -2 29 0 0 2 -1 0c-2,0 -3,0 -4,1 -1,1 -2,2 -2,3 0,1 1,3 3,6l14 22 13 -21c2,-3 3,-5 3,-7 0,-1 0,-2 -1,-2 0,-1 -1,-1 -2,-2 -1,0 -2,-1 -4,-1l0 -2z"/>
    <path id="1" class="fil3" d="M5561 3300c7,0 12,3 17,8 4,4 5,10 5,15 0,4 -1,8 -3,12 -2,4 -5,7 -8,9 -3,2 -7,3 -11,3 -7,0 -12,-3 -16,-8 -3,-5 -5,-10 -5,-15 0,-4 1,-8 3,-12 2,-4 5,-7 8,-9 3,-2 7,-3 11,-3zm-2 3c-2,0 -3,1 -5,2 -2,1 -3,3 -4,5 -1,3 -2,6 -2,10 0,7 1,12 4,17 3,5 6,7 10,7 3,0 6,-1 8,-4 2,-3 3,-7 3,-14 0,-8 -2,-14 -5,-19 -2,-3 -5,-5 -9,-5z"/>
    <path id="2" class="fil3" d="M5635 3301l0 28c0,5 0,8 0,9 0,1 1,2 1,2 1,0 1,1 2,1 1,0 2,0 3,-1l1 2 -14 6 -2 0 0 -9c-4,4 -7,7 -9,8 -2,1 -4,2 -6,2 -3,0 -5,-1 -7,-2 -2,-1 -3,-3 -4,-6 -1,-2 -1,-6 -1,-10l0 -20c0,-2 0,-4 -1,-4 0,-1 -1,-1 -2,-2 -1,0 -3,-1 -5,-1l0 -2 16 0 0 30c0,4 1,7 2,8 1,1 3,2 5,2 1,0 3,0 5,-1 2,-1 4,-3 6,-5l0 -26c0,-3 0,-4 -1,-5 -1,-1 -3,-1 -6,-1l0 -2 15 0z"/>
    <path id="3" class="fil3" d="M5666 3300l0 10c4,-7 8,-10 12,-10 2,0 3,1 4,2 1,1 2,2 2,4 0,1 0,2 -1,3 -1,1 -2,1 -3,1 -1,0 -2,-1 -4,-2 -1,-1 -3,-2 -3,-2 -1,0 -1,0 -2,1 -1,1 -3,4 -5,7l0 22c0,3 0,4 1,6 0,1 1,2 2,2 1,1 3,1 5,1l0 2 -23 0 0 -2c2,0 4,0 5,-1 1,-1 1,-1 2,-3 0,-1 0,-2 0,-5l0 -18c0,-5 0,-8 0,-9 0,-1 -1,-2 -1,-2 -1,0 -1,-1 -2,-1 -1,0 -2,0 -3,1l0 -2 14 -6 2 0z"/>
    <path id="4" class="fil3" d="M5762 3278l0 23 -2 0c-1,-4 -2,-8 -3,-11 -2,-3 -4,-5 -7,-6 -3,-2 -6,-2 -9,-2 -3,0 -6,1 -9,3 -2,2 -3,4 -3,7 0,2 1,4 2,6 2,2 7,6 15,10 6,3 11,6 13,8 2,2 4,4 5,6 1,2 2,5 2,8 0,5 -2,9 -6,13 -4,4 -9,6 -15,6 -2,0 -4,0 -6,0 -1,0 -3,-1 -6,-2 -3,-1 -5,-2 -6,-2 -1,0 -1,0 -2,1 0,1 -1,2 -1,3l-2 0 0 -23 2 0c1,5 2,8 3,11 1,2 4,4 7,6 3,2 6,2 10,2 4,0 7,-1 10,-3 2,-2 4,-5 4,-8 0,-2 0,-3 -1,-5 -1,-2 -2,-3 -4,-5 -1,-1 -5,-3 -11,-6 -6,-3 -10,-6 -12,-8 -2,-2 -4,-4 -6,-6 -1,-2 -2,-5 -2,-8 0,-5 2,-9 6,-12 4,-3 8,-5 14,-5 4,0 7,1 11,3 2,1 3,1 4,1 1,0 2,0 2,-1 1,-1 1,-2 1,-3l2 0z"/>
    <path id="5" class="fil3" d="M5797 3276l0 60c0,3 0,5 1,6 0,1 1,2 2,2 1,0 2,1 5,1l0 2 -22 0 0 -2c2,0 3,0 4,-1 1,0 1,-1 2,-2 0,-1 1,-3 1,-6l0 -41c0,-5 0,-8 0,-9 0,-1 -1,-2 -1,-2 -1,0 -1,-1 -2,-1 -1,0 -2,0 -3,1l-1 -2 13 -6 2 0z"/>
    <path id="6" class="fil3" d="M5838 3300c7,0 12,3 17,8 4,4 5,10 5,15 0,4 -1,8 -3,12 -2,4 -5,7 -8,9 -3,2 -7,3 -11,3 -7,0 -12,-3 -16,-8 -3,-5 -5,-10 -5,-15 0,-4 1,-8 3,-12 2,-4 5,-7 8,-9 3,-2 7,-3 11,-3zm-2 3c-2,0 -3,1 -5,2 -2,1 -3,3 -4,5 -1,3 -2,6 -2,10 0,7 1,12 4,17 3,5 6,7 10,7 3,0 6,-1 8,-4 2,-3 3,-7 3,-14 0,-8 -2,-14 -5,-19 -2,-3 -5,-5 -9,-5z"/>
    <path id="7" class="fil3" d="M5885 3330c-3,-1 -5,-3 -6,-6 -1,-2 -2,-5 -2,-8 0,-4 2,-8 5,-12 3,-3 8,-5 13,-5 4,0 8,1 11,3l10 0c1,0 2,0 2,0 0,0 0,0 0,0 0,0 0,1 0,2 0,1 0,1 0,2 0,0 0,0 -1,0 0,0 -1,0 -3,0l-6 0c2,2 3,5 3,9 0,4 -2,8 -5,11 -3,3 -8,4 -13,4 -2,0 -5,0 -7,-1 -1,1 -2,2 -3,3 -1,1 -1,2 -1,2 0,1 0,1 1,2 1,1 2,1 3,1 1,0 3,0 7,0 7,0 11,0 13,1 3,0 6,2 7,3 2,2 3,4 3,7 0,4 -2,7 -5,10 -5,5 -12,7 -20,7 -6,0 -12,-1 -16,-4 -2,-2 -4,-3 -4,-5 0,-1 0,-2 1,-2 1,-1 2,-3 3,-5 0,0 2,-2 5,-5 -2,-1 -3,-2 -4,-3 -1,-1 -1,-2 -1,-3 0,-1 0,-3 1,-4 1,-2 3,-4 6,-7zm9 -28c-2,0 -4,1 -6,3 -2,2 -2,5 -2,9 0,5 1,9 3,12 2,2 4,3 7,3 2,0 5,-1 6,-3 2,-2 2,-5 2,-9 0,-5 -1,-9 -3,-12 -2,-2 -4,-3 -6,-3zm-9 44c-2,2 -3,3 -3,5 -1,1 -1,3 -1,4 0,2 1,3 3,4 3,2 8,3 14,3 6,0 10,-1 13,-3 3,-2 4,-4 4,-7 0,-2 -1,-3 -3,-4 -2,-1 -5,-1 -10,-1 -7,0 -13,-1 -17,-1z"/>
    <path id="8" class="fil3" d="M5955 3340c-5,4 -8,6 -9,6 -2,1 -4,1 -6,1 -3,0 -6,-1 -8,-3 -2,-2 -3,-5 -3,-8 0,-2 0,-4 1,-6 1,-2 4,-4 7,-6 3,-2 9,-4 17,-7l0 -2c0,-5 -1,-8 -2,-9 -1,-2 -4,-3 -6,-3 -2,0 -4,1 -5,2 -1,1 -2,2 -2,4l0 3c0,2 0,3 -1,4 -1,1 -2,1 -3,1 -1,0 -2,0 -3,-1 -1,-1 -1,-2 -1,-4 0,-3 1,-5 4,-8 3,-2 7,-4 12,-4 4,0 7,1 10,2 2,1 3,3 4,5 1,1 1,4 1,9l0 15c0,4 0,7 0,8 0,1 0,2 1,2 0,0 1,0 1,0 1,0 1,0 1,0 1,0 2,-2 4,-4l0 3c-4,5 -7,7 -11,7 -2,0 -3,-1 -4,-2 -1,-1 -1,-3 -1,-6zm0 -3l0 -17c-5,2 -8,3 -10,4 -3,1 -4,3 -6,5 -1,2 -2,3 -2,5 0,2 1,4 2,6 1,2 3,2 5,2 3,0 6,-2 10,-5z"/>
    <path id="9" class="fil3" d="M5994 3309c5,-6 10,-10 15,-10 2,0 5,1 6,2 2,1 3,3 4,6 1,2 1,5 1,9l0 19c0,3 0,5 1,6 0,1 1,1 2,2 1,0 2,1 4,1l0 2 -22 0 0 -2 1 0c2,0 4,0 4,-1 1,-1 1,-2 2,-3 0,0 0,-2 0,-5l0 -19c0,-4 -1,-7 -2,-9 -1,-2 -3,-3 -5,-3 -4,0 -8,2 -12,6l0 24c0,3 0,5 1,6 0,1 1,2 2,2 1,0 2,1 5,1l0 2 -22 0 0 -2 1 0c2,0 4,-1 5,-2 1,-1 1,-3 1,-7l0 -17c0,-5 0,-9 0,-10 0,-1 -1,-2 -1,-2 -1,0 -1,-1 -2,-1 -1,0 -2,0 -3,1l-1 -2 14 -6 2 0 0 10z"/>
    <path id="10" class="fil3" d="M6123 3278l2 21 -2 0c-2,-5 -4,-9 -7,-12 -4,-4 -9,-6 -15,-6 -9,0 -15,3 -19,10 -4,6 -6,12 -6,20 0,6 1,12 4,17 2,5 6,9 10,12 4,2 8,4 12,4 2,0 5,0 7,-1 2,-1 5,-2 7,-3l0 -19c0,-3 0,-6 -1,-7 -1,-1 -1,-2 -2,-2 -1,-1 -3,-1 -6,-1l0 -2 26 0 0 2 -1 0c-3,0 -4,1 -5,3 -1,1 -1,4 -1,7l0 21c-4,2 -8,4 -11,5 -4,1 -8,1 -12,1 -13,0 -23,-4 -29,-12 -5,-6 -8,-13 -8,-22 0,-6 1,-12 4,-17 3,-6 8,-11 14,-15 5,-3 11,-4 17,-4 2,0 5,0 7,1 2,0 5,1 8,3 2,1 3,1 4,1 1,0 1,0 2,-1 0,-1 1,-2 1,-3l2 0z"/>
    <path id="11" class="fil3" d="M6166 3300c7,0 12,3 17,8 4,4 5,10 5,15 0,4 -1,8 -3,12 -2,4 -5,7 -8,9 -3,2 -7,3 -11,3 -7,0 -12,-3 -16,-8 -3,-5 -5,-10 -5,-15 0,-4 1,-8 3,-12 2,-4 5,-7 8,-9 3,-2 7,-3 11,-3zm-2 3c-2,0 -3,1 -5,2 -2,1 -3,3 -4,5 -1,3 -2,6 -2,10 0,7 1,12 4,17 3,5 6,7 10,7 3,0 6,-1 8,-4 2,-3 3,-7 3,-14 0,-8 -2,-14 -5,-19 -2,-3 -5,-5 -9,-5z"/>
    <path id="12" class="fil3" d="M6208 3318c0,7 2,12 5,16 3,4 7,6 12,6 3,0 6,-1 8,-2 2,-2 4,-4 6,-8l2 1c-1,5 -3,9 -6,12 -3,4 -7,6 -12,6 -5,0 -10,-2 -14,-6 -4,-4 -6,-10 -6,-17 0,-8 2,-14 6,-18 4,-4 9,-7 15,-7 5,0 9,2 12,5 3,3 5,8 5,13l-31 0zm0 -3l21 0c0,-3 -1,-5 -1,-6 -1,-2 -2,-3 -4,-4 -2,-1 -3,-2 -5,-2 -3,0 -5,1 -7,3 -2,2 -3,5 -4,9z"/>
    <path id="13" class="fil3" d="M6281 3300l0 15 -2 0c-1,-5 -3,-8 -5,-10 -2,-2 -4,-3 -7,-3 -2,0 -4,1 -6,2 -1,1 -2,3 -2,4 0,2 1,3 2,5 1,1 3,3 6,4l7 3c7,3 10,8 10,13 0,4 -2,7 -5,10 -3,3 -7,4 -10,4 -3,0 -6,0 -9,-1 -1,0 -2,0 -3,0 -1,0 -1,0 -2,1l-2 0 0 -16 2 0c1,5 3,8 5,10 3,2 6,4 9,4 2,0 4,-1 6,-2 1,-1 2,-3 2,-5 0,-2 -1,-4 -2,-6 -2,-2 -5,-3 -10,-6 -5,-2 -8,-4 -9,-6 -1,-2 -2,-4 -2,-7 0,-4 1,-7 4,-9 3,-3 6,-4 10,-4 2,0 4,0 6,1 2,1 3,1 3,1 1,0 1,0 1,0 0,0 1,-1 1,-2l2 0z"/>
    <path id="14" class="fil3" d="M6341 3311l31 0 0 -19c0,-3 0,-6 -1,-7 0,-1 -1,-2 -2,-2 -1,-1 -3,-1 -5,-1l-2 0 0 -2 29 0 0 2 -2 0c-2,0 -3,0 -5,1 -1,1 -2,1 -2,2 0,1 -1,3 -1,7l0 43c0,3 0,6 1,7 0,1 1,2 2,2 1,1 3,1 5,1l2 0 0 2 -29 0 0 -2 2 0c3,0 5,-1 6,-2 1,-1 1,-4 1,-8l0 -20 -31 0 0 20c0,3 0,6 1,7 0,1 1,2 2,2 1,1 3,1 4,1l2 0 0 2 -29 0 0 -2 2 0c3,0 5,-1 6,-2 1,-1 1,-4 1,-8l0 -43c0,-3 0,-6 -1,-7 0,-1 -1,-2 -2,-2 -1,-1 -3,-1 -5,-1l-2 0 0 -2 29 0 0 2 -2 0c-2,0 -3,0 -4,1 -1,1 -2,1 -2,2 0,1 -1,3 -1,7l0 19z"/>
    <path id="15" class="fil3" d="M6410 3318c0,7 2,12 5,16 3,4 7,6 12,6 3,0 6,-1 8,-2 2,-2 4,-4 6,-8l2 1c-1,5 -3,9 -6,12 -3,4 -7,6 -12,6 -5,0 -10,-2 -14,-6 -4,-4 -6,-10 -6,-17 0,-8 2,-14 6,-18 4,-4 9,-7 15,-7 5,0 9,2 12,5 3,3 5,8 5,13l-31 0zm0 -3l21 0c0,-3 -1,-5 -1,-6 -1,-2 -2,-3 -4,-4 -2,-1 -3,-2 -5,-2 -3,0 -5,1 -7,3 -2,2 -3,5 -4,9z"/>
    <path id="16" class="fil3" d="M6467 3300l0 10c4,-7 8,-10 12,-10 2,0 3,1 4,2 1,1 2,2 2,4 0,1 0,2 -1,3 -1,1 -2,1 -3,1 -1,0 -2,-1 -4,-2 -1,-1 -2,-2 -3,-2 -1,0 -1,0 -2,1 -1,1 -3,4 -5,7l0 22c0,3 0,4 1,6 0,1 1,2 2,2 1,1 3,1 5,1l0 2 -23 0 0 -2c2,0 4,0 5,-1 1,-1 1,-1 2,-3 0,-1 0,-2 0,-5l0 -18c0,-5 0,-8 0,-9 0,-1 -1,-2 -1,-2 -1,0 -1,-1 -2,-1 -1,0 -2,0 -3,1l0 -2 14 -6 2 0z"/>
    <path id="17" class="fil3" d="M6502 3318c0,7 2,12 5,16 3,4 7,6 12,6 3,0 6,-1 8,-2 2,-2 4,-4 6,-8l2 1c-1,5 -3,9 -6,12 -3,4 -7,6 -12,6 -5,0 -10,-2 -14,-6 -4,-4 -6,-10 -6,-17 0,-8 2,-14 6,-18 4,-4 9,-7 15,-7 5,0 9,2 12,5 3,3 5,8 5,13l-31 0zm0 -3l21 0c0,-3 -1,-5 -1,-6 -1,-2 -2,-3 -4,-4 -2,-1 -3,-2 -5,-2 -3,0 -5,1 -7,3 -2,2 -3,5 -4,9z"/>
   </g>
  </g>
 </g>
</svg>
